<?xml version="1.0" encoding="UTF-8"?>
<svg version="1.1" xmlns="http://www.w3.org/2000/svg" width="1000" height="1000">
<path d="M0 0 C3.2335398 3.78070581 5.63235145 7.75327314 7.90625 12.15234375 C8.26744431 12.84005356 8.62863861 13.52776337 9.0007782 14.23631287 C9.77196656 15.7057997 10.54080046 17.17652418 11.3074646 18.64837646 C13.32573296 22.52253031 15.3614244 26.38752533 17.39453125 30.25390625 C17.99627922 31.40004395 17.99627922 31.40004395 18.61018372 32.56933594 C21.74577358 38.53605968 24.94157783 44.46751215 28.1875 50.375 C32.6319076 58.47429739 37.01794531 66.60338286 41.375 74.75 C42.01236094 75.94141098 42.64973073 77.13281724 43.28710938 78.32421875 C43.60261749 78.91398499 43.91812561 79.50375122 44.24319458 80.11138916 C44.71642654 80.99597809 44.71642654 80.99597809 45.19921875 81.8984375 C45.51510956 82.48896912 45.83100037 83.07950073 46.15646362 83.68792725 C53.69604166 97.77958255 61.26841527 111.85336747 68.9375 125.875 C74.43410959 135.92589067 79.84593741 146.02154241 85.2489624 156.1229248 C85.56512512 156.71400024 85.88128784 157.30507568 86.20703125 157.9140625 C86.5233551 158.50546021 86.83967896 159.09685791 87.16558838 159.70617676 C92.17571415 169.06999316 97.21895715 178.41601024 102.25732422 187.76464844 C104.02863801 191.05316768 105.79781145 194.34283025 107.56640625 197.6328125 C112.99522731 207.7291409 118.4360857 217.81801564 123.9375 227.875 C128.45961052 236.14382902 132.92872276 244.44017203 137.375 252.75 C138.00690727 253.93050668 138.63882459 255.11100798 139.27075195 256.29150391 C141.83239205 261.0776493 144.393407 265.86412607 146.95117188 270.65234375 C148.22969959 273.04544732 149.50977211 275.43771255 150.79150391 277.82910156 C151.97830171 280.04340393 153.16301083 282.25882757 154.34521484 284.47558594 C157.37532801 290.122244 160.53176833 295.61070321 164 301 C164.59611084 300.64921387 165.19222168 300.29842773 165.80639648 299.93701172 C178.33068062 292.57623778 190.908917 285.33693101 203.60327148 278.27319336 C212.11505686 273.52470969 220.544788 268.64410904 228.94726562 263.70507812 C233.30510175 261.14503921 237.66769995 258.59382558 242.0625 256.09765625 C242.77535156 255.69168213 243.48820313 255.28570801 244.22265625 254.86743164 C246 254 246 254 248 254 C249.32 256.31 250.64 258.62 252 261 C232.06053431 276.22798167 232.06053431 276.22798167 223 283 C213.28230937 290.26621337 203.64533081 297.63818667 194 305 C173.40707074 320.71300286 173.40707074 320.71300286 164.265625 327.54296875 C159.73903575 330.93791069 155.24806783 334.37993192 150.75 337.8125 C144.5188204 342.56718006 138.27818475 347.30754233 132 352 C125.88870221 356.56785142 119.81423617 361.18237374 113.75 365.8125 C106.69219358 371.20123058 99.61025705 376.55566981 92.5 381.875 C86.14456352 386.6307522 79.82052913 391.4203147 73.5390625 396.2734375 C62.51425394 404.78278172 51.42228663 413.2073487 40.265625 421.54296875 C35.73903575 424.93791069 31.24806783 428.37993192 26.75 431.8125 C20.51881879 436.56718129 14.27808753 441.30741068 8 446 C-1.71767459 453.26623517 -11.35466889 460.63818645 -21 468 C-41.59292926 483.71300286 -41.59292926 483.71300286 -50.734375 490.54296875 C-55.26096425 493.93791069 -59.75193217 497.37993192 -64.25 500.8125 C-70.4811796 505.56718006 -76.72181525 510.30754233 -83 515 C-89.11129779 519.56785142 -95.18576383 524.18237374 -101.25 528.8125 C-108.30780642 534.20123058 -115.38974295 539.55566981 -122.5 544.875 C-128.85543648 549.6307522 -135.17947087 554.4203147 -141.4609375 559.2734375 C-152.48574606 567.78278172 -163.57771337 576.2073487 -174.734375 584.54296875 C-179.26096425 587.93791069 -183.75193217 591.37993192 -188.25 594.8125 C-194.4811796 599.56718006 -200.72181525 604.30754233 -207 609 C-213.11129779 613.56785142 -219.18576383 618.18237374 -225.25 622.8125 C-232.30780642 628.20123058 -239.38974295 633.55566981 -246.5 638.875 C-252.85543648 643.6307522 -259.17947087 648.4203147 -265.4609375 653.2734375 C-276.48574606 661.78278172 -287.57771337 670.2073487 -298.734375 678.54296875 C-303.26096425 681.93791069 -307.75193217 685.37993192 -312.25 688.8125 C-318.4811796 693.56718006 -324.72181525 698.30754233 -331 703 C-337.11129779 707.56785142 -343.18576383 712.18237374 -349.25 716.8125 C-357.13657935 722.83400991 -365.05469765 728.81117531 -373.00683594 734.74584961 C-376.6987685 737.50515758 -380.37590412 740.27697313 -384 743.125 C-384.59876953 743.59437988 -385.19753906 744.06375977 -385.81445312 744.54736328 C-387.37056702 745.7730509 -388.91997318 747.00724177 -390.46875 748.2421875 C-392.79783568 749.85960811 -394.18809026 750.81687142 -397 751 C-400.25 749.0625 -400.25 749.0625 -403 747 C-402.30255821 743.49052678 -400.90943219 740.64263322 -399.26171875 737.4765625 C-398.69549805 736.38529053 -398.12927734 735.29401855 -397.54589844 734.16967773 C-396.92668135 732.98798794 -396.30720847 731.80643217 -395.6875 730.625 C-395.04578818 729.39467013 -394.40418801 728.16428202 -393.76269531 726.93383789 C-389.53824984 718.84938323 -385.21238537 710.82347176 -380.81640625 702.83105469 C-376.18530645 694.39196072 -371.68259975 685.88700742 -367.1875 677.375 C-359.78334352 663.35750861 -352.32580096 649.37029381 -344.82666016 635.40332031 C-341.71409631 629.60418372 -338.60734427 623.80193455 -335.5 618 C-331.77530091 611.0458741 -328.04986642 604.09214868 -324.3203125 597.140625 C-319.09693229 587.40183828 -313.87641129 577.66186069 -308.69921875 567.8984375 C-308.15721581 566.87630661 -308.15721581 566.87630661 -307.60426331 565.83352661 C-306.87278714 564.45394707 -306.14132658 563.07435925 -305.40988159 561.69476318 C-305.04774567 561.01174133 -304.68560974 560.32871948 -304.3125 559.625 C-303.95012238 558.94149475 -303.58774475 558.2579895 -303.21438599 557.55377197 C-298.8806293 549.3827503 -294.51432497 541.23251498 -290.0625 533.125 C-285.0113852 523.92356133 -280.0902268 514.65602111 -275.1875 505.375 C-267.1814581 490.21930259 -259.10821027 475.10135107 -251 460 C-248.54059133 455.41724276 -246.08231206 450.83388179 -243.625 446.25 C-243.01333984 445.10917969 -242.40167969 443.96835937 -241.77148438 442.79296875 C-238.40131113 436.5015111 -235.04285387 430.20404125 -231.69921875 423.8984375 C-231.33788345 423.21701691 -230.97654816 422.53559631 -230.60426331 421.83352661 C-229.87278714 420.45394707 -229.14132658 419.07435925 -228.40988159 417.69476318 C-228.04774567 417.01174133 -227.68560974 416.32871948 -227.3125 415.625 C-226.95012238 414.94149475 -226.58774475 414.2579895 -226.21438599 413.55377197 C-221.8806293 405.3827503 -217.51432497 397.23251498 -213.0625 389.125 C-208.0113852 379.92356133 -203.0902268 370.65602111 -198.1875 361.375 C-190.782854 347.35776457 -183.32580342 333.37029839 -175.82666016 319.40332031 C-172.71409631 313.60418372 -169.60734427 307.80193455 -166.5 302 C-162.77530091 295.0458741 -159.04986642 288.09214868 -155.3203125 281.140625 C-148.29983377 268.05147082 -141.31077941 254.94637071 -134.35015869 241.82531738 C-129.04648935 231.82953857 -123.70230054 221.85657204 -118.32592773 211.8996582 C-112.7883218 201.63279215 -107.31943227 191.32973945 -101.859375 181.02148438 C-97.95499795 173.65405561 -94.01554239 166.3076407 -90 159 C-85.98335748 160.33888084 -85.22675737 162.75715469 -83.41015625 166.32421875 C-82.89974037 167.29727715 -82.89974037 167.29727715 -82.37901306 168.28999329 C-81.26483528 170.41809101 -80.16390646 172.55276885 -79.0625 174.6875 C-77.9018044 176.91055211 -76.73769606 179.13179651 -75.57357788 181.35305786 C-74.79738344 182.83493915 -74.02233993 184.31742385 -73.2484436 185.80050659 C-70.23527538 191.57261886 -67.1429188 197.29745882 -64 203 C-58.7000821 212.65074849 -53.54004426 222.37333162 -48.38623047 232.10253906 C-43.9740088 240.42961175 -39.53470001 248.73873309 -35 257 C-30.12951578 265.87540513 -25.36621354 274.80513619 -20.625 283.75 C-14.84466389 294.65500186 -9.03417832 305.54251521 -3.17285156 316.40429688 C-0.17926179 321.95230222 2.80820609 327.50345522 5.78125 333.0625 C6.09878738 333.65614349 6.41632477 334.24978699 6.7434845 334.86141968 C8.33048497 337.82867973 9.91687859 340.79626192 11.50268555 343.76416016 C14.5116121 349.38711396 17.53890825 354.99845992 20.61328125 360.5859375 C21.17515137 361.6078418 21.73702148 362.62974609 22.31591797 363.68261719 C23.37230624 365.59944819 24.43234889 367.51427119 25.49658203 369.42675781 C25.9604834 370.26819336 26.42438477 371.10962891 26.90234375 371.9765625 C27.30960693 372.70955566 27.71687012 373.44254883 28.13647461 374.19775391 C29 376 29 376 29 378 C38.89166431 377.13625781 46.24085811 374.41110593 54.8125 369.5 C55.94107422 368.8706958 57.06964844 368.2413916 58.23242188 367.59301758 C61.50406348 365.75470894 64.7553279 363.88542458 68 362 C69.27883057 361.26209229 69.27883057 361.26209229 70.58349609 360.50927734 C86.64516335 351.50895634 86.64516335 351.50895634 97.4375 337.265625 C101.38309834 321.3736317 92.51193608 306.34659374 85.39355469 292.68408203 C84.02868821 290.05525546 82.67711556 287.41984638 81.32879639 284.78250122 C74.6124657 271.64578459 67.83660742 258.55227703 60.71533203 245.62939453 C56.09036011 237.21937394 51.6054767 228.7375397 47.125 220.25 C41.2191602 209.06511329 35.27541366 197.90330201 29.26269531 186.77539062 C24.59186823 178.12212548 19.97966145 169.43856821 15.375 160.75 C10.65590743 151.84598286 5.91264117 142.95857877 1.0625 134.125 C-3.73623746 125.36518455 -8.47413946 116.57334232 -13.17044067 107.75823975 C-13.9590304 106.2798363 -14.7495457 104.80245797 -15.54220581 103.32623291 C-34.27776142 68.41245263 -34.27776142 68.41245263 -30.265625 49.546875 C-24.54150061 31.71083523 -11.80603046 14.38089557 0 0 Z M-89 293 C-95.9391501 305.61145214 -102.76227066 318.280157 -109.5 331 C-114.28254193 340.02844115 -119.08364074 349.04343043 -124 358 C-128.87048422 366.87540513 -133.63378646 375.80513619 -138.375 384.75 C-144.15763803 395.65934459 -149.97146986 406.55062866 -155.83374023 417.41748047 C-160.04804873 425.22969239 -164.24736286 433.04979692 -168.4375 440.875 C-169.06027832 442.03805664 -169.68305664 443.20111328 -170.32470703 444.39941406 C-171.58620333 446.75547868 -172.84756946 449.11161296 -174.10888672 451.46777344 C-177.85430037 458.46394626 -181.60230971 465.45872966 -185.35058594 472.45336914 C-188.26748694 477.89704907 -191.18318038 483.34135898 -194.09432983 488.78811646 C-195.46228752 491.34737517 -196.83097013 493.90624585 -198.19970703 496.46508789 C-198.84899453 497.67941278 -199.49793082 498.89392554 -200.14648438 500.10864258 C-201.04857523 501.79817175 -201.95199952 503.48698876 -202.85546875 505.17578125 C-203.39937256 506.19260986 -203.94327637 507.20943848 -204.50366211 508.25708008 C-205.77531296 510.58812874 -207.09469825 512.87532934 -208.453125 515.15625 C-210.28347415 517.79754734 -210.28347415 517.79754734 -209.5625 520.1875 C-207.60813563 522.45456267 -205.3495808 524.15471947 -203 526 C-187.9896425 517.01847047 -173.0139948 507.98335224 -158.07958984 498.87597656 C-152.3905766 495.41043211 -146.6948866 491.95588044 -141 488.5 C-132.49647865 483.33910901 -123.99564107 478.17385736 -115.5 473 C-107.00435852 467.82614239 -98.50339848 462.66109387 -90 457.5 C-79.53956703 451.15094603 -69.08367559 444.79448501 -58.6328125 438.4296875 C-54.67033746 436.01647181 -50.70662245 433.60530707 -46.7421875 431.1953125 C-45.70811768 430.5664917 -44.67404785 429.9376709 -43.60864258 429.28979492 C-41.64256522 428.09426483 -39.67627228 426.89908916 -37.7097168 425.7043457 C-32.45011911 422.50530681 -27.21314641 419.27422178 -22 416 C-28.06360383 403.54304954 -34.6211278 391.37759507 -41.25146484 379.21484375 C-44.16360465 373.86060513 -47.05039569 368.49276769 -49.9375 363.125 C-51.11328019 360.9401036 -52.28906145 358.75520777 -53.46484375 356.5703125 C-54.04862793 355.48524414 -54.63241211 354.40017578 -55.23388672 353.28222656 C-56.99000251 350.0185798 -58.7468057 346.75530418 -60.50390625 343.4921875 C-61.08164795 342.41912354 -61.65938965 341.34605957 -62.25463867 340.24047852 C-63.41173102 338.0921939 -64.56943895 335.94424072 -65.7277832 333.79663086 C-68.45780499 328.73307305 -71.18118769 323.6662756 -73.88116455 318.5866394 C-74.8410409 316.78150556 -75.80301075 314.97750321 -76.765625 313.17382812 C-77.97554633 310.90522564 -79.18149062 308.63449609 -80.3828125 306.36132812 C-81.20265625 304.82702148 -81.20265625 304.82702148 -82.0390625 303.26171875 C-82.75376709 301.91533325 -82.75376709 301.91533325 -83.48291016 300.54174805 C-85.11006351 297.81559846 -86.96582961 295.43339753 -89 293 Z " fill="#09589D" transform="translate(473,115)"/>
<path d="M0 0 C0.66 0 1.32 0 2 0 C2.3309668 0.64211426 2.66193359 1.28422852 3.00292969 1.94580078 C9.27676574 14.10270745 15.61263213 26.21287089 22.20068359 38.20263672 C26.66593587 46.34634447 31.02639162 54.54365382 35.375 62.75 C41.15654395 73.65806849 46.96958997 84.54792671 52.83154297 95.41308594 C57.06899681 103.26758288 61.28861923 111.13150283 65.5 119 C70.32106176 128.00663827 75.15356203 137.00699045 80 146 C89.8771627 164.33279137 99.71710946 182.68485847 109.47741699 201.08010864 C119.50072269 219.96951254 129.56844735 238.8318665 139.92327881 257.54220581 C162.08969218 297.59902377 162.08969218 297.59902377 168.6875 311.875 C177.9154043 331.84122502 188.6627143 351.22290851 203 368 C203.74636719 368.89203125 204.49273438 369.7840625 205.26171875 370.703125 C222.12323791 390.14410362 244.48573847 400.57869883 269 407 C267.85033129 410.89118641 266.862542 414.07161213 264 417 C261.35668945 417.54589844 261.35668945 417.54589844 258.11328125 417.609375 C256.27080811 417.65807739 256.27080811 417.65807739 254.39111328 417.70776367 C253.03158488 417.72271877 251.67204628 417.73676923 250.3125 417.75 C248.89304476 417.77662019 247.4736108 417.80439722 246.05419922 417.83325195 C242.18806071 417.90437009 238.32214213 417.94533016 234.45550537 417.97784424 C231.96714917 418.00029641 229.47897759 418.03035453 226.99072266 418.06201172 C210.3666505 418.26300911 193.72363925 418.38239612 177.125 417.3125 C176.12291504 417.25924561 175.12083008 417.20599121 174.08837891 417.15112305 C162.68236969 416.24308902 154.75554883 411.02137026 147.29039001 402.55778503 C140.34509933 394.17328906 135.23439281 384.06161399 130.22695923 374.4390564 C128.5185494 371.15751986 126.78861246 367.88737016 125.05859375 364.6171875 C124.71366379 363.96451401 124.36873383 363.31184052 124.01335144 362.63938904 C120.89345634 356.75655069 117.62521479 350.96380201 114.3125 345.1875 C109.24173642 336.32556236 104.47485725 327.33383937 99.79956055 318.2578125 C96.3246314 311.52007587 92.77268737 304.83324481 89.125 298.1875 C84.59910547 289.94133218 80.12410445 281.6695647 75.6875 273.375 C75.21473633 272.4912117 75.21473633 272.4912117 74.73242188 271.58956909 C73.44814765 269.18846183 72.16407224 266.7872485 70.88040161 264.38581848 C68.69319961 260.29444666 66.50199751 256.2052393 64.30859375 252.1171875 C59.08851754 242.38653309 53.87232201 232.65414891 48.69921875 222.8984375 C48.33788345 222.21701691 47.97654816 221.53559631 47.60426331 220.83352661 C46.87278714 219.45394707 46.14132658 218.07435925 45.40988159 216.69476318 C45.04774567 216.01174133 44.68560974 215.32871948 44.3125 214.625 C43.95012238 213.94149475 43.58774475 213.2579895 43.21438599 212.55377197 C38.8806293 204.3827503 34.51432497 196.23251498 30.0625 188.125 C25.01137738 178.92354709 20.09080948 169.65572447 15.1875 160.375 C-0.15100871 131.26804802 -0.15100871 131.26804802 -16 102.4375 C-16.75567261 101.0913562 -16.75567261 101.0913562 -17.52661133 99.71801758 C-21.14389323 93.34237092 -25.01652369 87.15273256 -29 81 C-51.38481414 99.57463301 -73.8032553 120.13872165 -76.8125 150.8125 C-78.43080803 183.21384118 -58.09910959 213.30012406 -43.32472229 240.8024292 C-39.67318815 247.60058829 -36.05745114 254.41753052 -32.44320679 261.23556519 C-26.21461277 272.98150874 -19.94918451 284.7073163 -13.66357422 296.42285156 C-8.55537689 305.94934988 -3.48246351 315.49429908 1.58401489 325.04302979 C6.5132805 334.33222755 11.4641657 343.60929974 16.4375 352.875 C21.75384909 362.78652137 27.04811935 372.70956487 32.31765747 382.64605713 C33.09059076 384.1031849 33.86406659 385.56002505 34.63815308 387.01654053 C35.72922795 389.0700214 36.8180123 391.12470193 37.90625 393.1796875 C38.216194 393.76218262 38.526138 394.34467773 38.84547424 394.94482422 C42.34927348 401.57437628 45.6435063 408.28701259 49 415 C5.44 415 -38.12 415 -83 415 C-83 408 -83 408 -81.8515625 406.20703125 C-79.46033168 404.64819091 -77.04730921 403.6922054 -74.375 402.6875 C-64.19540515 398.56894411 -56.73212819 393.34461792 -51.125 383.8125 C-46.89525464 369.47836296 -53.15459961 356.42220725 -59.90917969 343.94091797 C-62.34955732 339.5987062 -64.98770648 335.37600852 -67.60864258 331.14135742 C-78.07419101 314.21920527 -87.35670498 296.72830583 -96.41763306 279.02851868 C-98.8662119 274.24894532 -101.35913805 269.49439856 -103.875 264.75 C-111.38059409 250.56856773 -118.66604673 236.27068267 -126 222 C-128.1988856 224.70907323 -130.34956519 227.39040905 -132.234375 230.328125 C-132.63487061 230.94945312 -133.03536621 231.57078125 -133.44799805 232.2109375 C-133.87765869 232.88382813 -134.30731934 233.55671875 -134.75 234.25 C-135.21897705 234.97960937 -135.6879541 235.70921875 -136.17114258 236.4609375 C-137.78381491 238.97201361 -139.39203287 241.48590858 -141 244 C-142.23818455 245.93235363 -143.47647002 247.8646426 -144.71484375 249.796875 C-148.11932595 255.11139554 -151.51984443 260.42844228 -154.91943359 265.74609375 C-158.27786544 270.99852036 -161.63903762 276.24919244 -165 281.5 C-166.3333472 283.58332446 -167.66668051 285.6666578 -169 287.75 C-193 325.25 -193 325.25 -195.00219727 328.37841797 C-196.32822488 330.45034624 -197.65423415 332.52228624 -198.98022461 334.59423828 C-202.06318745 339.41153364 -205.14631475 344.22872341 -208.23013306 349.04547119 C-209.31036952 350.73275836 -210.39053652 352.42008999 -211.47070312 354.10742188 C-212.8169375 356.21036315 -214.16328275 358.31323345 -215.50976562 360.41601562 C-219.68411489 366.93707325 -223.84639099 373.46571258 -228 380 C-224.67637807 383.4210454 -221.13833697 386.10234213 -217.1875 388.75 C-215.7691056 389.7142179 -214.3511659 390.6791049 -212.93359375 391.64453125 C-212.15612793 392.17256348 -211.37866211 392.7005957 -210.57763672 393.24462891 C-205.62015682 396.62067366 -200.6832872 400.02623807 -195.75 403.4375 C-194.2498938 404.46665527 -194.2498938 404.46665527 -192.71948242 405.51660156 C-191.77564697 406.16983398 -190.83181152 406.82306641 -189.859375 407.49609375 C-188.59818848 408.36512329 -188.59818848 408.36512329 -187.31152344 409.25170898 C-185 411 -185 411 -181 415 C-237.76 415 -294.52 415 -353 415 C-350.29330766 410.9399615 -348.05051767 407.78643881 -344.8125 404.3125 C-341.68062224 400.89035064 -338.66555304 397.42069824 -335.75 393.8125 C-330.53481485 387.37288007 -325.08668248 381.14544597 -319.64648438 374.89648438 C-317.06362617 371.92144841 -314.49939568 368.93058917 -311.9375 365.9375 C-311.44733398 365.36483398 -310.95716797 364.79216797 -310.45214844 364.20214844 C-309.4641114 363.04759562 -308.47615552 361.89297334 -307.48828125 360.73828125 C-305.98327951 358.98047082 -304.47632297 357.22435554 -302.96875 355.46875 C-298.12649817 349.82867582 -293.29624986 344.17927033 -288.5 338.5 C-283.2034411 332.22831051 -277.86395577 325.99408929 -272.51611328 319.76611328 C-269.51064566 316.26505808 -266.50854185 312.76111655 -263.50683594 309.25683594 C-260.97314792 306.29948748 -258.4365735 303.34470321 -255.89453125 300.39453125 C-251.30393447 295.06164678 -246.74238602 289.71814055 -242.3125 284.25 C-238.75732096 279.86848205 -235.03230463 275.68289319 -231.234375 271.51171875 C-228.99865467 268.99848768 -226.86622318 266.42688521 -224.75 263.8125 C-219.53481485 257.37288007 -214.08668248 251.14544597 -208.64648438 244.89648438 C-206.06362617 241.92144841 -203.49939568 238.93058917 -200.9375 235.9375 C-200.44733398 235.36483398 -199.95716797 234.79216797 -199.45214844 234.20214844 C-198.4641114 233.04759562 -197.47615552 231.89297334 -196.48828125 230.73828125 C-194.98327951 228.98047082 -193.47632297 227.22435554 -191.96875 225.46875 C-187.12649817 219.82867582 -182.29624986 214.17927033 -177.5 208.5 C-171.20091594 201.04121402 -164.84005229 193.63584766 -158.47949219 186.22949219 C-153.13313895 180.00296761 -147.7952217 173.7701061 -142.5 167.5 C-136.20091594 160.04121402 -129.84005229 152.63584766 -123.47949219 145.22949219 C-118.13313895 139.00296761 -112.7952217 132.7701061 -107.5 126.5 C-101.20091594 119.04121402 -94.84005229 111.63584766 -88.47949219 104.22949219 C-83.13313895 98.00296761 -77.7952217 91.7701061 -72.5 85.5 C-66.20091594 78.04121402 -59.84005229 70.63584766 -53.47949219 63.22949219 C-48.13313895 57.00296761 -42.7952217 50.7701061 -37.5 44.5 C-33.7047002 40.00596107 -29.8920405 35.52740173 -26.0625 31.0625 C-25.3185498 30.1947998 -25.3185498 30.1947998 -24.55957031 29.30957031 C-21.99588762 26.32109618 -19.42808325 23.3362576 -16.85546875 20.35546875 C-15.82007878 19.15384718 -14.78491941 17.95202687 -13.75 16.75 C-13.25201904 16.17241943 -12.75403809 15.59483887 -12.2409668 14.99975586 C-8.52784692 10.67138604 -4.98055219 6.23186385 -1.5234375 1.6953125 C-1.02070312 1.13585937 -0.51796875 0.57640625 0 0 Z " fill="#09589D" transform="translate(661,467)"/>
</svg>
