<?xml version="1.0" encoding="utf-8"?>
<svg viewBox="133.3287 56.856 847.6214 386.288" xmlns="http://www.w3.org/2000/svg">
  <circle cx="912.595" cy="237.166" r="38" fill="#f2f2f2" transform="matrix(0.9999999999999999, 0, 0, 0.9999999999999999, 0, 0)"/>
  <circle cx="912.595" cy="237.166" r="10" fill="#e6e6e6" transform="matrix(0.9999999999999999, 0, 0, 0.9999999999999999, 0, 0)"/>
  <path d="M 910.768 237.379 C 914.98 240.816 916.264 246.232 915.48 251.462 C 914.517 257.198 911.541 262.403 907.086 266.143 C 902.077 270.595 895.967 273.604 890.071 276.684 C 884.654 279.449 879.449 282.609 874.496 286.139 C 855.536 299.92 841.211 319.542 833.013 341.439 C 824.828 363.299 822.632 388.111 828.852 410.766 C 831.929 421.975 838.153 434.069 849.75 438.287 C 858.993 441.649 871.614 439.483 876.32 429.957 C 881.376 419.723 874.322 408.219 865.236 403.139 C 853.458 396.553 839.389 401.366 828.795 408.032 C 817.132 415.371 807.756 425.902 795.58 432.48 C 790.099 435.534 783.999 437.314 777.736 437.685 C 771.984 437.912 766.242 437.025 760.827 435.073 C 749.591 430.979 739.918 423.471 733.165 413.602 C 725.431 402.359 721.969 388.577 721.338 375.077 C 719.925 344.871 731.857 316.612 741.431 288.599 C 746.577 274.012 750.431 259.001 752.95 243.74 C 755.346 228.401 756.199 212.86 755.496 197.351 C 754.862 183.638 753.509 169.297 747.457 156.772 C 742.135 145.759 732.408 136.745 720.11 134.473 C 714.567 133.385 708.823 134.045 703.671 136.361 C 701.917 137.161 703.44 139.748 705.185 138.952 C 716.068 133.987 728.931 138.817 736.969 146.833 C 746.355 156.194 749.802 170.017 751.333 182.772 C 754.772 213 752.062 243.612 743.365 272.765 C 735.018 301.117 721.889 328.286 718.859 357.991 C 717.477 371.545 718.187 385.558 722.519 398.556 C 726.236 410.133 733.206 420.397 742.598 428.121 C 751.44 435.27 762.317 440.14 773.769 440.682 C 786.623 441.291 797.895 435.561 807.868 427.938 C 818.549 419.773 828.377 409.699 841.315 405.121 C 847.214 403.034 853.932 402.06 859.989 404.069 C 865.184 405.844 869.591 409.388 872.441 414.081 C 875.071 418.455 876.042 423.923 873.641 428.622 C 871.384 433.04 866.979 435.595 862.21 436.469 C 857.161 437.363 851.958 436.479 847.487 433.968 C 842.262 430.984 838.44 425.977 835.762 420.687 C 830.421 410.137 828.627 397.579 828.355 385.87 C 828.117 374.432 829.582 363.023 832.703 352.017 C 838.914 329.753 851.45 309.769 868.792 294.488 C 873.161 290.682 877.835 287.241 882.767 284.199 C 888.147 280.883 893.889 278.233 899.374 275.104 C 904.771 272.026 910.089 268.347 913.806 263.281 C 916.974 258.939 918.684 253.705 918.693 248.33 C 918.807 243.325 916.678 238.53 912.889 235.258 C 911.405 234.048 909.27 236.158 910.768 237.38 L 910.768 237.379 Z" style="fill: rgb(255, 255, 255);" transform="matrix(0.9999999999999999, 0, 0, 0.9999999999999999, 0, 0)"/>
  <path d="M 556.015 412.166 C 569.302 420.755 584.673 425.573 600.485 426.106 C 600.203 426.775 599.885 427.43 599.535 428.066 C 597.694 431.464 595.093 434.39 591.935 436.616 C 576.216 447.678 554.416 437.577 552.695 418.433 C 552.628 417.689 552.595 416.943 552.595 416.196 L 552.595 412.166 L 556.015 412.166 Z" style="fill: rgb(3, 104, 255);" transform="matrix(0.9999999999999999, 0, 0, 0.9999999999999999, 0, 0)"/>
  <path d="M 649.285 413.346 L 649.285 416.196 C 649.292 435.411 628.496 447.428 611.852 437.827 C 607.872 435.531 604.603 432.181 602.405 428.146 C 602.039 427.494 601.708 426.823 601.415 426.136 C 602.145 426.156 602.865 426.166 603.595 426.166 C 619.715 426.185 635.527 421.748 649.285 413.346 Z" style="fill: rgb(3, 104, 255);" transform="matrix(0.9999999999999999, 0, 0, 0.9999999999999999, 0, 0)"/>
  <path d="M 682.925 111.966 C 682.175 111.856 681.415 111.786 680.655 111.736 C 689.291 131.639 689.889 154.112 682.325 174.446 C 683.085 174.356 683.835 174.236 684.585 174.096 C 708.393 169.483 718.279 140.827 702.38 122.516 C 697.384 116.762 690.472 113.014 682.925 111.966 L 682.925 111.966 Z" style="fill: rgb(3, 104, 255);" transform="matrix(0.9999999999999999, 0, 0, 0.9999999999999999, 0, 0)"/>
  <path d="M 526.535 111.736 C 525.775 111.786 525.015 111.856 524.265 111.966 C 500.245 115.301 488.843 143.388 503.741 162.522 C 508.422 168.535 515.124 172.646 522.605 174.096 C 523.355 174.236 524.105 174.356 524.865 174.446 C 517.3 154.112 517.899 131.639 526.535 111.736 L 526.535 111.736 Z" style="paint-order: fill; fill-rule: nonzero; fill: rgb(3, 104, 255);" transform="matrix(0.9999999999999999, 0, 0, 0.9999999999999999, 0, 0)"/>
  <path d="M 682.925 111.966 C 657.362 50.9 575.28 40.406 535.177 93.077 C 495.073 145.748 527.027 222.08 592.693 230.475 C 644.1 237.047 689.599 196.992 689.595 145.166 C 689.591 133.767 687.324 122.482 682.925 111.966 Z M 682.325 174.446 C 659.784 235.038 580.104 248.507 538.9 198.69 C 497.696 148.873 525.872 73.134 589.617 62.358 C 640.864 53.696 687.596 93.192 687.595 145.166 C 687.592 155.161 685.807 165.077 682.325 174.446 L 682.325 174.446 Z" style="fill: rgb(255, 255, 255);" transform="matrix(0.9999999999999999, 0, 0, 0.9999999999999999, 0, 0)"/>
  <path d="M 647.595 125.666 L 559.595 125.666 C 546.123 125.666 537.704 140.249 544.439 151.916 C 547.565 157.33 553.343 160.666 559.595 160.666 L 647.595 160.666 C 661.066 160.666 669.486 146.083 662.75 134.416 C 659.624 129.001 653.847 125.666 647.595 125.666 Z" style="fill: rgb(3, 104, 255);" transform="matrix(0.9999999999999999, 0, 0, 0.9999999999999999, 0, 0)"/>
  <path d="M 603.595 248.166 C 534.315 248.198 491.05 323.215 525.717 383.197 C 541.067 409.757 568.89 426.668 599.535 428.066 C 600.485 428.116 601.445 428.146 602.405 428.146 C 602.805 428.166 603.195 428.166 603.595 428.166 C 672.877 428.166 716.178 353.166 681.537 293.166 C 665.46 265.32 635.749 248.166 603.595 248.166 Z M 649.285 413.346 C 635.527 421.748 619.715 426.185 603.595 426.166 C 602.865 426.166 602.145 426.156 601.415 426.136 C 601.105 426.136 600.795 426.126 600.485 426.106 C 532.744 423.751 492.955 348.948 528.864 291.46 C 564.774 233.972 649.45 236.915 681.282 296.758 C 703.197 337.959 689.161 389.103 649.285 413.346 L 649.285 413.346 Z" style="fill: rgb(255, 255, 255);" transform="matrix(0.9999999999999999, 0, 0, 0.9999999999999999, 0, 0)"/>
  <path d="M 666.762 315.999 L 627.428 315.999 C 619.473 315.999 614.502 307.388 618.479 300.499 C 620.325 297.302 623.736 295.332 627.428 295.332 L 666.762 295.332 C 674.716 295.332 679.688 303.944 675.711 310.833 C 673.865 314.03 670.453 315.999 666.762 315.999 Z" fill="#3f3d56" transform="matrix(0.9999999999999999, 0, 0, 0.9999999999999999, 0, 0)"/>
  <circle cx="630.05" cy="305.666" r="5.244" fill="#f2f2f2" transform="matrix(0.9999999999999999, 0, 0, 0.9999999999999999, 0, 0)"/>
  <circle cx="647.095" cy="305.666" r="5.244" fill="#f2f2f2" transform="matrix(0.9999999999999999, 0, 0, 0.9999999999999999, 0, 0)"/>
  <circle cx="664.139" cy="305.666" r="5.244" fill="#0368ff" transform="matrix(0.9999999999999999, 0, 0, 0.9999999999999999, 0, 0)"/>
  <path d="M 297.954 438.554 C 306.947 430.955 312.409 418.951 310.976 407.266 C 309.544 395.58 300.672 384.837 289.163 382.356 C 277.654 379.874 264.535 386.744 261.04 397.986 C 259.116 376.311 256.899 353.729 245.376 335.271 C 234.941 318.558 216.869 306.599 197.283 304.459 C 177.696 302.32 157.074 310.4 144.859 325.86 C 132.644 341.319 129.653 363.793 138.208 381.542 C 144.511 394.617 156.122 404.347 168.287 412.263 C 207.1 437.519 255.247 446.052 301.06 439.309 L 297.954 438.554 Z" fill="#f2f2f2" transform="matrix(0.9999999999999999, 0, 0, 0.9999999999999999, 0, 0)"/>
  <path d="M 164.228 310.848 C 180.389 324.012 195.215 338.734 208.492 354.802 C 221.771 370.854 233.461 388.156 243.399 406.465 C 248.954 416.736 253.944 427.302 258.348 438.116 C 259.245 440.316 255.673 441.274 254.785 439.098 C 246.986 420.032 237.338 401.777 225.977 384.593 C 214.672 367.471 201.733 351.487 187.342 336.864 C 179.202 328.597 170.613 320.784 161.615 313.46 C 159.771 311.959 162.399 309.359 164.228 310.848 L 164.228 310.848 Z" fill="#fff" transform="matrix(0.9999999999999999, 0, 0, 0.9999999999999999, 0, 0)"/>
  <circle cx="294.905" cy="91.856" r="31" fill="#2f2e41" transform="matrix(0.9999999999999999, 0, 0, 0.9999999999999999, 0, 0)"/>
  <path d="M 410.522 205.367 C 409.928 206.261 409.204 207.06 408.374 207.74 C 403.304 211.92 395.725 210.753 392.147 205.242 C 391.951 204.939 391.772 204.626 391.609 204.304 L 342.76 199.591 C 334.843 198.797 328.385 192.903 326.873 185.092 L 324.1 170.475 L 343.164 167.509 L 346.585 179.217 L 394.213 190.916 C 394.582 190.593 394.973 190.295 395.384 190.026 C 402.489 185.416 411.92 190.225 412.361 198.683 C 412.484 201.051 411.839 203.396 410.522 205.367 L 410.522 205.367 Z" fill="#ffb8b8" transform="matrix(0.9999999999999999, 0, 0, 0.9999999999999999, 0, 0)"/>
  <path d="M 347.756 177.45 L 326.46 183.203 C 324.061 183.848 321.593 182.43 320.943 180.032 L 313.484 152.42 C 310.994 143.206 319.413 134.753 328.637 137.204 C 332.032 138.106 334.885 140.406 336.487 143.533 L 350.588 171.054 C 351.893 173.601 350.52 176.704 347.756 177.45 Z" fill="#2f2e41" transform="matrix(0.9999999999999999, 0, 0, 0.9999999999999999, 0, 0)"/>
  <polygon points="335.42 430.989 347.679 430.989 353.512 383.701 335.417 383.702 335.42 430.989" fill="#ffb8b8" transform="matrix(0.9999999999999999, 0, 0, 0.9999999999999999, 0, 0)"/>
  <path d="M 332.793 427.486 L 371.324 427.486 C 371.324 427.486 371.324 427.486 371.324 427.486 L 371.324 442.373 C 371.324 442.373 371.324 442.373 371.324 442.373 L 347.68 442.373 C 339.458 442.373 332.793 435.708 332.793 427.486 C 332.793 427.486 332.793 427.486 332.793 427.486 Z" fill="#2f2e41" style="transform-origin: 352.059px 434.93px;" transform="matrix(-1, 0.000046000008, -0.000046000008, -1, -0.000037773664, -0.000088729615)"/>
  <polygon points="226.15 419.041 237.62 423.371 259.782 381.193 242.854 374.802 226.15 419.041" fill="#ffb8b8" transform="matrix(0.9999999999999999, 0, 0, 0.9999999999999999, 0, 0)"/>
  <path d="M 221.059 421.162 L 259.59 421.162 C 259.59 421.162 259.59 421.162 259.59 421.162 L 259.59 436.048 C 259.59 436.048 259.59 436.048 259.59 436.048 L 235.946 436.048 C 227.724 436.048 221.059 429.383 221.059 421.162 C 221.059 421.162 221.059 421.162 221.059 421.162 Z" fill="#2f2e41" style="transform-origin: 240.324px 428.605px;" transform="matrix(-0.935535132885, -0.353233069181, 0.353233069181, -0.935535132885, 0.000051346722, 0.000099483716)"/>
  <path d="M 335.033 420.005 C 333.084 420.004 331.357 418.746 330.758 416.891 L 299.489 320.327 C 299.133 319.228 297.721 318.926 296.948 319.784 C 296.849 319.893 296.767 320.017 296.704 320.15 L 253.37 412.351 C 252.398 414.414 250.038 415.426 247.874 414.707 L 230.807 409.017 C 228.558 408.263 227.278 405.894 227.88 403.599 L 254.424 303.052 C 257.202 292.402 259.208 281.565 260.428 270.625 C 262.289 252.612 270.734 235.919 284.144 223.748 C 290 218.384 293.806 211.149 294.91 203.286 L 294.982 202.783 L 333.856 208.92 L 358.479 409.849 C 358.742 412.071 357.34 414.151 355.182 414.741 L 336.208 419.849 C 335.825 419.953 335.43 420.006 335.033 420.005 Z" fill="#2f2e41" transform="matrix(0.9999999999999999, 0, 0, 0.9999999999999999, 0, 0)"/>
  <circle cx="307.22" cy="98.147" r="24.561" fill="#ffb8b8" transform="matrix(0.9999999999999999, 0, 0, 0.9999999999999999, 0, 0)"/>
  <path d="M 331.44 213.205 C 331.363 213.205 331.286 213.203 331.208 213.199 L 292.672 211.272 C 290.449 211.172 288.637 209.452 288.42 207.237 L 283.156 155.909 C 281.488 139.642 296.739 126.812 312.48 131.239 L 312.48 131.239 C 315.494 132.064 318.302 133.509 320.726 135.48 C 347.834 157.743 339.094 198.079 335.769 209.911 C 335.233 211.859 333.46 213.208 331.44 213.205 Z" fill="#0368ff" transform="matrix(0.9999999999999999, 0, 0, 0.9999999999999999, 0, 0)"/>
  <path d="M 297.915 247.67 C 296.842 247.671 295.775 247.511 294.749 247.196 C 288.461 245.29 285.234 238.334 287.84 232.302 C 287.984 231.972 288.145 231.649 288.323 231.335 L 265.188 188.054 C 261.464 181.023 262.794 172.381 268.46 166.795 L 279.094 156.39 L 292.123 170.62 L 284.27 179.954 L 300.912 226.087 C 301.386 226.215 301.85 226.376 302.302 226.569 C 310.076 229.93 311.296 240.447 304.498 245.499 C 302.595 246.913 300.286 247.675 297.915 247.67 L 297.915 247.67 Z" fill="#ffb8b8" transform="matrix(0.9999999999999999, 0, 0, 0.9999999999999999, 0, 0)"/>
  <path d="M 286.39 179.95 L 269.804 165.406 C 267.938 163.766 267.752 160.925 269.387 159.056 L 288.244 137.551 C 294.537 130.374 306.238 132.701 309.307 141.739 C 310.437 145.065 310.102 148.714 308.386 151.78 L 293.284 178.764 C 291.886 181.262 288.542 181.837 286.39 179.95 L 286.39 179.95 Z" fill="#2f2e41" transform="matrix(0.9999999999999999, 0, 0, 0.9999999999999999, 0, 0)"/>
  <path d="M 291.415 122.005 C 293.656 122.8 296.403 123.5 298.167 121.852 C 299.888 120.244 299.575 117.301 298.56 115.134 C 297.546 112.966 295.973 111.038 295.491 108.678 C 294.8 105.297 296.587 101.785 299.138 99.58 C 301.689 97.376 304.9 96.218 308.034 95.104 L 325.227 88.992 C 329.483 87.479 334.069 85.702 336.451 81.721 C 339.897 75.96 336.747 67.726 331.094 64.364 C 325.442 61.003 318.302 61.629 312.203 63.993 C 308.83 65.3 305.622 67.101 302.133 68.022 C 295.249 69.838 287.422 68.208 281.372 72.09 C 276.106 75.469 273.663 82.363 273.841 88.814 C 274.018 95.265 276.393 101.409 278.899 107.309 C 280.389 110.819 281.981 114.369 284.506 117.161 C 287.031 119.952 290.679 121.905 294.323 121.391 L 291.415 122.005 Z" fill="#2f2e41" transform="matrix(0.9999999999999999, 0, 0, 0.9999999999999999, 0, 0)"/>
  <circle cx="268.905" cy="76.856" r="20" fill="#2f2e41" transform="matrix(0.9999999999999999, 0, 0, 0.9999999999999999, 0, 0)"/>
  <path id="a5b0fbf6-85a2-48e8-ad40-c81376cd9893-60" data-name="Path 22" d="M 431.117 192.306 L 430.762 192.258 L 432.098 182.535 C 432.526 179.427 430.353 176.561 427.245 176.134 L 406.645 173.302 C 403.537 172.875 400.671 175.048 400.244 178.156 L 392.912 231.497 C 392.484 234.604 394.657 237.47 397.765 237.898 L 418.365 240.729 C 421.473 241.156 424.339 238.983 424.766 235.875 L 429.81 199.178 L 430.165 199.227 L 431.117 192.306 Z" fill="#3f3d56" transform="matrix(0.9999999999999999, 0, 0, 0.9999999999999999, 0, 0)"/>
  <path id="a5d1dbd7-b3f0-4599-af89-34309e57a462-61" data-name="Path 23" d="M 426.597 178.986 L 424.032 178.634 C 424.371 179.957 423.261 181.201 421.908 181.015 L 410.652 179.468 C 409.299 179.282 408.566 177.784 409.249 176.602 L 406.854 176.272 C 404.64 175.968 402.599 177.516 402.294 179.73 L 395.31 230.534 C 395.006 232.748 396.554 234.789 398.768 235.094 L 418.511 237.808 C 420.725 238.112 422.766 236.564 423.071 234.35 L 430.055 183.546 C 430.359 181.332 428.811 179.291 426.597 178.986 L 426.597 178.986 Z" fill="#fff" transform="matrix(0.9999999999999999, 0, 0, 0.9999999999999999, 0, 0)"/>
  <circle cx="412.595" cy="210.166" r="11" fill="#0368ff" transform="matrix(0.9999999999999999, 0, 0, 0.9999999999999999, 0, 0)"/>
  <path d="M 411.505 214.362 C 411.257 214.363 411.016 214.283 410.818 214.134 L 410.806 214.125 L 408.221 212.146 C 407.517 211.611 407.656 210.514 408.471 210.172 C 408.852 210.012 409.29 210.07 409.618 210.322 L 411.292 211.606 L 415.249 206.446 C 415.635 205.943 416.356 205.847 416.859 206.233 L 416.835 206.267 L 416.86 206.234 C 417.363 206.62 417.458 207.341 417.072 207.844 L 412.418 213.914 C 412.2 214.197 411.862 214.363 411.505 214.362 Z" fill="#fff" transform="matrix(0.9999999999999999, 0, 0, 0.9999999999999999, 0, 0)"/>
  <path d="M 979.758 443.144 L 140.464 443.144 C 139.547 443.141 138.977 442.147 139.438 441.355 C 139.65 440.989 140.041 440.764 140.464 440.763 L 979.758 440.763 C 980.674 440.763 981.247 441.755 980.789 442.549 C 980.576 442.917 980.183 443.144 979.758 443.144 Z" fill="#ccc" transform="matrix(0.9999999999999999, 0, 0, 0.9999999999999999, 0, 0)"/>
</svg>